<svg fill="none" height="495" viewBox="0 0 945 495" width="945" xmlns="http://www.w3.org/2000/svg"><path d="M0 0H945V495H0Z" fill="#f8f8f8"/><rect fill="#bcbcbc" height="386.824" rx="15.7246" width="703.674" x="121.449" y="64.2354"/><path d="M121.449 79.9599C121.449 71.2755 128.489 64.2354 137.174 64.2354H809.399C818.083 64.2354 825.123 71.2755 825.123 79.9599V101.974H121.449V79.9599Z" fill="#e3e3e3"/><rect fill="#e3e3e3" height="295.962" rx="12.031" width="594.331" x="176.485" y="122.416"/><path d="M176.485 134.447C176.485 127.802 181.872 122.416 188.516 122.416H758.785C765.429 122.416 770.816 127.802 770.816 134.447V151.29H176.485V134.447Z" fill="#3d3d3d"/><g fill="#f8f8f8"><rect height="118.72" rx="11.7934" width="115.576" x="624.635" y="283.986"/><rect height="190.267" rx="14.1521" width="53.4635" x="202.431" y="211.26"/><rect height="190.267" rx="14.1521" width="53.4635" x="264.543" y="211.26"/><rect height="234.296" rx="14.1521" width="289.332" x="326.655" y="167.231"/><path d="M159.413 83.2224C159.415 78.3849 155.495 74.4617 150.657 74.4597 145.82 74.4577 141.897 78.3776 141.895 83.2151 141.893 88.0526 145.813 91.9758 150.65 91.9778 155.488 91.9798 159.411 88.0599 159.413 83.2224Z"/><path d="M185.358 83.2224C185.36 78.3849 181.44 74.4617 176.603 74.4597 171.765 74.4577 167.842 78.3776 167.84 83.2151 167.838 88.0526 171.758 91.9758 176.596 91.9778 181.433 91.9798 185.356 88.0599 185.358 83.2224Z"/><path d="M211.304 83.2224C211.306 78.3849 207.386 74.4617 202.548 74.4597 197.711 74.4577 193.788 78.3776 193.786 83.2151 193.784 88.0526 197.704 91.9758 202.541 91.9778 207.379 91.9798 211.302 88.0599 211.304 83.2224Z"/><path d="M204.328 136.943C204.33 133.242 201.331 130.24 197.629 130.239 193.928 130.237 190.927 133.237 190.925 136.938 190.924 140.639 193.923 143.641 197.624 143.642 201.325 143.644 204.327 140.644 204.328 136.943Z"/><path d="M224.179 136.943C224.181 133.242 221.182 130.24 217.481 130.239 213.779 130.237 210.778 133.237 210.776 136.938 210.775 140.639 213.774 143.641 217.475 143.642 221.176 143.644 224.178 140.644 224.179 136.943Z"/><path d="M244.031 136.943C244.032 133.242 241.033 130.24 237.332 130.239 233.63 130.237 230.629 133.237 230.627 136.938 230.626 140.639 233.625 143.641 237.326 143.642 241.027 143.644 244.029 140.644 244.031 136.943Z"/></g><path d="M510.008 179.391H436.91C421.935 179.391 408.1 187.38 400.615 200.349L364.063 263.657C356.579 276.625 356.579 292.598 364.063 305.566L400.615 368.874C408.1 381.843 421.94 389.832 436.91 389.832H510.008C524.983 389.832 538.818 381.843 546.303 368.874L582.855 305.566C590.34 292.598 590.34 276.625 582.855 263.657L546.303 200.349C538.818 187.38 524.978 179.391 510.008 179.391Z" fill="#ff7059" opacity=".3"/><path d="M493.569 219.163H453.35C442.409 219.163 432.304 224.999 426.836 234.474L406.729 269.303C401.262 278.779 401.262 290.45 406.729 299.92L426.836 334.749C432.304 344.224 442.415 350.06 453.35 350.06H493.569C504.509 350.06 514.615 344.224 520.083 334.749L540.189 299.92C545.657 290.444 545.657 278.773 540.189 269.303L520.083 234.474C514.615 224.999 504.504 219.163 493.569 219.163Z" fill="#ff7059" opacity=".5"/><path d="M485.606 246.602H461.313C455.252 246.602 449.648 249.838 446.617 255.085L434.468 276.121C431.437 281.373 431.437 287.839 434.468 293.092L446.617 314.128C449.648 319.38 455.252 322.611 461.313 322.611H485.606C491.667 322.611 497.272 319.375 500.302 314.128L512.451 293.092C515.482 287.839 515.482 281.373 512.451 276.121L500.302 255.085C497.272 249.832 491.667 246.602 485.606 246.602Z" fill="#ff7059"/><path d="M822.867 249.785V212.126C822.867 208.344 819.769 205.282 815.943 205.282H772.002C763.13 205.282 755.935 198.17 755.935 189.401 755.935 180.633 763.13 173.521 772.002 173.521H822.91C840.635 173.521 855 187.72 855 205.24V218.024C855 235.57 840.61 249.785 822.867 249.785Z" fill="#ff7059"/><path d="M257.467 64.1328 295.126 64.1328C298.908 64.1328 301.97 67.2309 301.97 71.057L301.97 114.998C301.97 123.87 309.082 131.065 317.85 131.065 326.619 131.065 333.731 123.87 333.731 114.998L333.731 64.0904C333.731 46.3649 319.532 31.9999 302.012 31.9999L289.227 31.9999C271.682 31.9999 257.467 46.3903 257.467 64.1328Z" fill="#ff7059"/><path d="M174.931 324.477H117.032C102.105 324.477 90 312.331 90 297.352 90 282.373 102.105 270.227 117.032 270.227H121.429V287.458C121.429 290.49 123.88 292.94 126.893 292.94H174.923C183.6 292.94 190.637 300.002 190.637 308.709 190.637 317.415 183.6 324.477 174.923 324.477H174.931Z" fill="#ff7059"/><path d="M422.632 307.378C425.237 307.275 426.828 310.204 425.325 312.334L370.52 389.972C368.763 392.46 364.848 391.248 364.806 388.202L364.189 344.007C364.174 342.973 363.652 342.012 362.792 341.437L326.048 316.872C323.516 315.179 324.629 311.234 327.673 311.115L422.632 307.378Z" fill="#3d3d3d"/><rect fill="#f8f8f8" height="30.6629" rx="7.86228" width="33.0216" x="202.431" y="167.624"/><rect fill="#f8f8f8" height="30.6629" rx="7.86228" width="33.8078" x="243.315" y="167.624"/><rect fill="#f8f8f8" height="30.6629" rx="7.86228" width="33.0216" x="284.985" y="167.624"/><rect fill="#f8f8f8" height="49.5324" rx="11.7934" width="115.576" x="624.635" y="167.231"/><rect fill="#f8f8f8" height="49.5324" rx="11.7934" width="115.576" x="624.635" y="225.805"/><path d="M276.593 451.06H221.3V443.99C221.3 430.312 232.546 419.226 246.42 419.226H264.913C269.89 419.226 273.922 415.251 273.922 410.345V393.071C273.922 384.282 281.152 377.154 290.067 377.154 298.982 377.154 306.213 384.282 306.213 393.071V421.851C306.213 437.977 292.951 451.06 276.584 451.06H276.593Z" fill="#ff7059"/></svg>